<svg width="158" height="41" viewBox="0 0 158 41" fill="none" xmlns="http://www.w3.org/2000/svg">
<path d="M23.633 22.1039L23.9867 22.3996L24.77 23.053C24.9299 23.1869 25.0897 23.3208 25.2496 23.4547L25.4334 23.6086C25.6932 23.8264 25.7532 24.1241 25.5933 24.4039C25.4674 24.6277 25.3395 24.8535 25.2096 25.0773C24.9159 25.5889 24.6221 26.0964 24.3404 26.584C24.3044 26.646 20.7115 32.8566 20.2958 33.582C19.5045 34.9648 19.7103 36.6654 20.8094 37.8144C20.9633 37.9742 21.1311 38.1061 21.293 38.234C21.3609 38.288 21.4309 38.3439 21.5008 38.3999L21.9145 38.7456L24.8459 33.7079C24.8679 33.6679 26.1908 31.4039 27.4317 29.2737L27.4417 29.2577C27.4677 29.2197 27.4877 29.1878 27.5077 29.1558L28.1191 28.1047C28.5787 27.3154 29.0363 26.5241 29.4999 25.7367C29.8237 25.1872 29.9955 24.6517 30.0295 24.1021C30.0994 22.9531 29.7138 21.966 28.9144 21.2486C27.9872 20.4153 27.046 19.58 26.1148 18.7547C25.9989 18.6528 25.883 18.5489 25.7691 18.447C25.6532 18.3431 25.5373 18.2432 25.4214 18.1393C25.1956 17.9394 24.9678 17.7396 24.744 17.5398C24.4083 17.242 24.0706 16.9443 23.7349 16.6465C23.645 16.5666 23.555 16.4887 23.4651 16.4087C23.4391 16.3848 23.4132 16.3628 23.3872 16.3388C23.2833 16.2469 23.1814 16.157 23.0795 16.065C23.0675 16.053 23.0535 16.0431 23.0415 16.0311C23.0335 16.0231 23.0235 16.0151 23.0155 16.0071L21.7526 14.8861C21.0852 14.2926 20.4157 13.6991 19.7483 13.1076C19.5005 12.8878 19.1948 12.7699 18.889 12.7699C18.8271 12.7699 18.7652 12.7739 18.7032 12.7839C18.3335 12.8418 18.0058 13.0756 17.802 13.4233C17.77 13.4773 17.738 13.5312 17.7061 13.5852C17.6681 13.6491 17.6301 13.7111 17.5942 13.775L5.16882 35.0567L5.55649 35.2865C6.03608 35.5703 6.53765 35.7302 7.04921 35.7601C7.14113 35.7661 7.23105 35.7681 7.31898 35.7681C7.32098 35.7681 7.32297 35.7681 7.32497 35.7681C7.34496 35.7681 7.36494 35.7681 7.38492 35.7681C7.45486 35.7681 7.5228 35.7661 7.59074 35.7621C7.61872 35.7621 7.6447 35.7561 7.67267 35.7541C7.73262 35.7501 7.79057 35.7442 7.84852 35.7362C7.8785 35.7322 7.90647 35.7282 7.93445 35.7222C7.9904 35.7142 8.04436 35.7062 8.10031 35.6942C8.13028 35.6882 8.15826 35.6822 8.18623 35.6742C8.23819 35.6622 8.29214 35.6502 8.3441 35.6362C8.37207 35.6282 8.40005 35.6203 8.43002 35.6123C8.47998 35.5983 8.53194 35.5823 8.58189 35.5643C8.60987 35.5543 8.63785 35.5443 8.66382 35.5343C8.71378 35.5163 8.76174 35.4964 8.8097 35.4764C8.83767 35.4644 8.86365 35.4524 8.88963 35.4404C8.93759 35.4184 8.98355 35.3964 9.02951 35.3725C9.05549 35.3585 9.08147 35.3445 9.10744 35.3305C9.1534 35.3045 9.19737 35.2786 9.24133 35.2526C9.26731 35.2366 9.29129 35.2206 9.31726 35.2046C9.36123 35.1766 9.40319 35.1467 9.44515 35.1167C9.46913 35.0987 9.49311 35.0827 9.51709 35.0627C9.55906 35.0308 9.59902 34.9988 9.63899 34.9648C9.66297 34.9448 9.68495 34.9268 9.70893 34.9069C9.74889 34.8729 9.78486 34.8369 9.82283 34.801C9.84481 34.779 9.86679 34.759 9.88877 34.737C9.92674 34.699 9.96271 34.6591 9.99868 34.6211C10.0207 34.5971 10.0406 34.5752 10.0626 34.5512C10.0986 34.5092 10.1326 34.4652 10.1685 34.4213C10.1885 34.3973 10.2065 34.3733 10.2265 34.3493C10.2625 34.3014 10.2984 34.2514 10.3324 34.1995C10.3484 34.1775 10.3644 34.1555 10.3784 34.1335C10.4283 34.0596 10.4743 33.9837 10.5202 33.9037C12.6884 30.1549 14.8525 26.4062 17.0167 22.6554L19.3826 18.5549L20.8693 19.7958L21.223 20.0916L21.5767 20.3873L23.2833 21.8101L23.637 22.1059L23.633 22.1039Z" fill="#00E1B6"/>
<path d="M23.5232 23.1951L20.7456 27.967L20.332 27.6213C20.262 27.5634 20.1941 27.5094 20.1242 27.4555C19.9623 27.3276 19.7944 27.1957 19.6406 27.0358C18.5415 25.8868 18.3337 24.1863 19.127 22.8035C19.153 22.7575 19.193 22.6876 19.2449 22.5996C19.3029 22.4977 19.3768 22.3698 19.4647 22.22C19.7025 21.8063 20.0362 21.2308 20.4039 20.5934L20.4079 20.5974L20.7576 20.8891H20.7616L21.1113 21.1849H21.1153L22.8159 22.6056L23.1695 22.9014L23.5232 23.1971V23.1951ZM27.7436 10.4741C26.3548 9.22712 24.934 7.9702 23.5592 6.75524C22.9877 6.24968 22.4142 5.74211 21.8427 5.23655L20.5498 4.08953C19.8924 3.50603 19.2329 2.92054 18.5735 2.33704C18.2757 2.07326 17.8961 1.95536 17.5284 2.01531C17.1587 2.07326 16.831 2.30706 16.6272 2.65476C16.5952 2.71072 16.5612 2.76467 16.5292 2.81862C16.4913 2.88057 16.4553 2.94252 16.4173 3.00646L5.22895 22.172L4 24.2782L4.38767 24.508C4.86726 24.7918 5.36883 24.9516 5.88039 24.9796C5.97231 24.9856 6.06223 24.9876 6.15015 24.9876C6.15215 24.9876 6.15415 24.9876 6.15815 24.9876C6.17214 24.9876 6.18612 24.9876 6.20011 24.9876C6.27605 24.9876 6.34998 24.9856 6.42392 24.9796C6.4479 24.9796 6.47188 24.9756 6.49586 24.9736C6.5598 24.9676 6.62175 24.9636 6.6837 24.9556C6.71167 24.9516 6.73765 24.9476 6.76563 24.9436C6.82358 24.9356 6.87953 24.9256 6.93548 24.9157C6.96346 24.9097 6.99143 24.9037 7.02141 24.8977C7.07536 24.8857 7.12732 24.8737 7.17927 24.8597C7.20925 24.8517 7.23722 24.8437 7.2652 24.8337C7.31515 24.8197 7.36511 24.8038 7.41307 24.7858C7.44305 24.7758 7.47102 24.7638 7.499 24.7538C7.54696 24.7358 7.59292 24.7178 7.63888 24.6978C7.66685 24.6859 7.69683 24.6719 7.7248 24.6599C7.76877 24.6399 7.81473 24.6179 7.85869 24.5959C7.88666 24.5819 7.91464 24.566 7.94262 24.55C7.98458 24.526 8.02654 24.502 8.06851 24.476C8.09648 24.4581 8.12446 24.4421 8.15044 24.4241C8.1904 24.3981 8.23037 24.3701 8.27034 24.3421C8.29631 24.3222 8.32429 24.3042 8.35027 24.2842C8.38823 24.2542 8.4262 24.2243 8.46417 24.1923C8.49015 24.1703 8.51612 24.1503 8.5401 24.1283C8.57607 24.0964 8.61204 24.0624 8.64801 24.0284C8.67199 24.0044 8.69797 23.9825 8.71995 23.9585C8.75592 23.9225 8.78989 23.8845 8.82386 23.8486C8.84584 23.8246 8.86982 23.7986 8.8918 23.7746C8.92577 23.7347 8.95974 23.6927 8.99172 23.6507C9.0117 23.6248 9.03368 23.6008 9.05366 23.5748C9.08963 23.5268 9.1236 23.4789 9.15757 23.4289C9.17356 23.405 9.18955 23.383 9.20553 23.359C9.25549 23.2851 9.30145 23.2091 9.34741 23.1292C11.5555 19.3125 13.7956 15.4298 15.9637 11.675L18.2098 7.78236L23.5992 12.2805C23.755 12.4104 23.9109 12.5403 24.0648 12.6722L24.2626 12.838C24.5224 13.0558 24.5823 13.3536 24.4225 13.6353C24.2706 13.9071 24.1167 14.1749 23.9629 14.4426C23.809 14.7104 23.6551 14.9762 23.4993 15.244L23.6092 15.3419C23.6871 15.4118 23.767 15.4818 23.845 15.5497C23.9609 15.6516 24.0768 15.7555 24.1927 15.8574C24.5743 16.1951 24.956 16.5329 25.3377 16.8726L25.3617 16.8945C25.5335 17.0464 25.7054 17.2003 25.8792 17.3521C25.8792 17.3521 25.8812 17.3541 25.8832 17.3561C25.9971 17.4581 26.111 17.558 26.2269 17.6599C26.2269 17.6599 26.2289 17.6619 26.2309 17.6639C26.3448 17.7658 26.4587 17.8657 26.5746 17.9676C26.5746 17.9676 26.5766 17.9696 26.5786 17.9716C26.6985 17.7638 26.8184 17.558 26.9403 17.3502C27.276 16.7726 27.6197 16.1812 27.9634 15.5917C27.9774 15.5677 27.9914 15.5457 28.0034 15.5217C28.1113 15.3379 28.2192 15.154 28.3271 14.9702C28.5749 14.5486 28.7348 14.1369 28.8107 13.7213C28.8207 13.6613 28.8307 13.6014 28.8387 13.5414C28.8467 13.4735 28.8527 13.4055 28.8587 13.3356C28.9286 12.1866 28.5429 11.1994 27.7416 10.482" fill="#1a1a1a"/>
<path d="M38.3775 18.3772L41.3575 4.3772H44.9575L41.9775 18.3772H38.3775ZM58.9583 16.2972C58.8917 16.5905 58.7917 16.8705 58.6583 17.1372C58.5383 17.4039 58.3583 17.6439 58.1183 17.8572C57.8917 18.0572 57.5983 18.2239 57.2383 18.3572C56.8783 18.4772 56.445 18.5372 55.9383 18.5372C55.6983 18.5372 55.4583 18.5239 55.2183 18.4972C54.9917 18.4705 54.7717 18.4172 54.5583 18.3372C54.345 18.2439 54.1517 18.1105 53.9783 17.9372C53.805 17.7639 53.6583 17.5372 53.5383 17.2572L50.0383 9.0372C49.9183 8.81053 49.8117 8.6972 49.7183 8.6972C49.6783 8.6972 49.625 8.7172 49.5583 8.7572C49.4917 8.7972 49.4383 8.91053 49.3983 9.0972L47.4183 18.3772H44.1783L46.7183 6.4172C46.8117 5.99053 46.9517 5.6372 47.1383 5.3572C47.3383 5.06386 47.5783 4.8372 47.8583 4.6772C48.1383 4.50386 48.445 4.38386 48.7783 4.3172C49.1117 4.25053 49.465 4.2172 49.8383 4.2172C50.345 4.2172 50.805 4.30386 51.2183 4.4772C51.645 4.6372 51.9583 4.95053 52.1583 5.4172L55.6983 13.7172C55.725 13.7839 55.7517 13.8572 55.7783 13.9372C55.8183 14.0172 55.885 14.0572 55.9783 14.0572C56.085 14.0572 56.1583 14.0172 56.1983 13.9372C56.2383 13.8439 56.265 13.7705 56.2783 13.7172L58.2583 4.3772H61.4983L58.9583 16.2972ZM62.8413 18.3772C62.2813 18.3772 61.8546 18.2372 61.5613 17.9572C61.268 17.6772 61.1213 17.2972 61.1213 16.8172C61.1213 16.6305 61.1413 16.4372 61.1813 16.2372L63.2413 6.5372C63.4013 5.7772 63.6813 5.23053 64.0813 4.8972C64.4813 4.55053 65.0613 4.3772 65.8213 4.3772H71.0413C71.948 4.3772 72.708 4.4972 73.3213 4.7372C73.948 4.9772 74.448 5.3172 74.8213 5.7572C75.208 6.1972 75.4813 6.72386 75.6413 7.3372C75.8146 7.95053 75.9013 8.63053 75.9013 9.3772C75.9013 9.7772 75.8813 10.1705 75.8413 10.5572C75.8013 10.9439 75.7413 11.3505 75.6613 11.7772C75.4613 12.8572 75.2146 13.8105 74.9213 14.6372C74.628 15.4639 74.2213 16.1572 73.7013 16.7172C73.1813 17.2639 72.5146 17.6772 71.7013 17.9572C70.888 18.2372 69.868 18.3772 68.6413 18.3772H62.8413ZM65.1413 14.5772C65.1013 14.7372 65.0813 14.8772 65.0813 14.9972C65.0813 15.2105 65.1413 15.3639 65.2613 15.4572C65.3946 15.5372 65.6146 15.5772 65.9213 15.5772H66.7413C67.5413 15.5772 68.228 15.5305 68.8013 15.4372C69.388 15.3305 69.8813 15.1372 70.2813 14.8572C70.6946 14.5639 71.0346 14.1572 71.3013 13.6372C71.568 13.1172 71.7946 12.4305 71.9813 11.5772C72.048 11.2305 72.1013 10.8839 72.1413 10.5372C72.1946 10.1772 72.2213 9.87053 72.2213 9.6172C72.2213 9.1372 72.1546 8.74386 72.0213 8.4372C71.9013 8.1172 71.6946 7.86386 71.4013 7.6772C71.108 7.49053 70.7213 7.36386 70.2413 7.2972C69.7746 7.2172 69.2013 7.1772 68.5213 7.1772H67.7013C67.3146 7.1772 67.0346 7.25053 66.8613 7.3972C66.7013 7.53053 66.5813 7.79053 66.5013 8.1772L65.1413 14.5772ZM75.9361 18.3772L78.9161 4.3772H82.5161L79.5361 18.3772H75.9361ZM88.1169 5.8572C88.2902 5.5772 88.4702 5.3372 88.6569 5.1372C88.8436 4.9372 89.0502 4.77053 89.2769 4.6372C89.5169 4.49053 89.7902 4.38386 90.0969 4.3172C90.4169 4.25053 90.7902 4.2172 91.2169 4.2172C91.8569 4.2172 92.3769 4.32386 92.7769 4.5372C93.1902 4.7372 93.4702 5.1772 93.6169 5.8572L96.1969 18.3772H92.6169L92.0369 15.1772H86.1369L84.1969 18.3772H80.2569L88.1169 5.8572ZM87.5969 12.4572H91.7369L90.8969 8.0172C90.8702 7.91053 90.8502 7.81053 90.8369 7.7172C90.8236 7.62386 90.7836 7.5772 90.7169 7.5772C90.6502 7.5772 90.5836 7.62386 90.5169 7.7172C90.4502 7.81053 90.3836 7.91053 90.3169 8.0172L87.5969 12.4572Z" fill="#1a1a1a"/>
<path d="M40.8975 24.5284C41.0575 23.7684 41.3375 23.2217 41.7375 22.8884C42.1375 22.5417 42.7175 22.3684 43.4775 22.3684H50.5575C51.7175 22.3684 52.5442 22.6817 53.0375 23.3084C53.5442 23.9217 53.7975 24.7817 53.7975 25.8884C53.7975 26.0617 53.7842 26.2817 53.7575 26.5484C53.7442 26.815 53.7242 27.0617 53.6975 27.2884C53.6042 27.915 53.4642 28.5017 53.2775 29.0484C53.0909 29.595 52.8309 30.075 52.4975 30.4884C52.1775 30.8884 51.7709 31.2084 51.2775 31.4484C50.7975 31.675 50.2109 31.7884 49.5175 31.7884H48.5175L48.4975 31.8884L51.9975 36.3684H47.7775L45.1975 32.7284C44.9975 32.4484 44.8042 32.155 44.6175 31.8484C44.4309 31.5284 44.3375 31.2217 44.3375 30.9284C44.3375 30.8617 44.3442 30.7884 44.3575 30.7084C44.3709 30.6284 44.3909 30.535 44.4175 30.4284C44.5242 29.895 44.7775 29.555 45.1775 29.4084C45.5775 29.2484 46.1042 29.1684 46.7575 29.1684H47.9375C48.6042 29.1684 49.0775 29.0017 49.3575 28.6684C49.6509 28.3217 49.8709 27.795 50.0175 27.0884C50.0442 26.9284 50.0642 26.7817 50.0775 26.6484C50.1042 26.5017 50.1175 26.3684 50.1175 26.2484C50.1175 25.8484 50.0042 25.5684 49.7775 25.4084C49.5509 25.2484 49.1709 25.1684 48.6375 25.1684H45.2975C44.9509 25.1684 44.6909 25.2417 44.5175 25.3884C44.3575 25.5217 44.2375 25.7617 44.1575 26.1084L41.9775 36.3684H38.3775L40.8975 24.5284ZM60.79 33.7284C61.79 33.7284 62.57 33.5017 63.13 33.0484C63.7034 32.5817 64.0967 31.8484 64.31 30.8484L66.13 22.3684H69.73L67.87 31.0284C67.63 32.1217 67.31 33.0284 66.91 33.7484C66.5234 34.455 66.03 35.015 65.43 35.4284C64.83 35.8417 64.1234 36.1284 63.31 36.2884C62.4967 36.4484 61.55 36.5284 60.47 36.5284C59.5767 36.5284 58.77 36.4417 58.05 36.2684C57.3434 36.095 56.7367 35.835 56.23 35.4884C55.7367 35.1284 55.3567 34.6884 55.09 34.1684C54.8234 33.635 54.69 33.015 54.69 32.3084C54.69 32.0817 54.7034 31.8617 54.73 31.6484C54.7567 31.435 54.79 31.2284 54.83 31.0284L56.69 22.3684H60.29L58.47 30.8484C58.39 31.2084 58.35 31.535 58.35 31.8284C58.35 32.495 58.55 32.9817 58.95 33.2884C59.35 33.5817 59.9634 33.7284 60.79 33.7284ZM83.7044 34.2884C83.6377 34.5817 83.5377 34.8617 83.4044 35.1284C83.2844 35.395 83.1044 35.635 82.8644 35.8484C82.6377 36.0484 82.3444 36.215 81.9844 36.3484C81.6244 36.4684 81.1911 36.5284 80.6844 36.5284C80.4444 36.5284 80.2044 36.515 79.9644 36.4884C79.7377 36.4617 79.5177 36.4084 79.3044 36.3284C79.0911 36.235 78.8977 36.1017 78.7244 35.9284C78.5511 35.755 78.4044 35.5284 78.2844 35.2484L74.7844 27.0284C74.6644 26.8017 74.5577 26.6884 74.4644 26.6884C74.4244 26.6884 74.3711 26.7084 74.3044 26.7484C74.2377 26.7884 74.1844 26.9017 74.1444 27.0884L72.1644 36.3684H68.9244L71.4644 24.4084C71.5577 23.9817 71.6977 23.6284 71.8844 23.3484C72.0844 23.055 72.3244 22.8284 72.6044 22.6684C72.8844 22.495 73.1911 22.375 73.5244 22.3084C73.8577 22.2417 74.2111 22.2084 74.5844 22.2084C75.0911 22.2084 75.5511 22.295 75.9644 22.4684C76.3911 22.6284 76.7044 22.9417 76.9044 23.4084L80.4444 31.7084C80.4711 31.775 80.4977 31.8484 80.5244 31.9284C80.5644 32.0084 80.6311 32.0484 80.7244 32.0484C80.8311 32.0484 80.9044 32.0084 80.9444 31.9284C80.9844 31.835 81.0111 31.7617 81.0244 31.7084L83.0044 22.3684H86.2444L83.7044 34.2884ZM100.247 34.2884C100.181 34.5817 100.081 34.8617 99.9474 35.1284C99.8274 35.395 99.6474 35.635 99.4074 35.8484C99.1807 36.0484 98.8874 36.215 98.5274 36.3484C98.1674 36.4684 97.734 36.5284 97.2274 36.5284C96.9874 36.5284 96.7474 36.515 96.5074 36.4884C96.2807 36.4617 96.0607 36.4084 95.8474 36.3284C95.634 36.235 95.4407 36.1017 95.2674 35.9284C95.094 35.755 94.9474 35.5284 94.8274 35.2484L91.3274 27.0284C91.2074 26.8017 91.1007 26.6884 91.0074 26.6884C90.9674 26.6884 90.914 26.7084 90.8474 26.7484C90.7807 26.7884 90.7274 26.9017 90.6874 27.0884L88.7074 36.3684H85.4674L88.0074 24.4084C88.1007 23.9817 88.2407 23.6284 88.4274 23.3484C88.6274 23.055 88.8674 22.8284 89.1474 22.6684C89.4274 22.495 89.734 22.375 90.0674 22.3084C90.4007 22.2417 90.754 22.2084 91.1274 22.2084C91.634 22.2084 92.094 22.295 92.5074 22.4684C92.934 22.6284 93.2474 22.9417 93.4474 23.4084L96.9874 31.7084C97.014 31.775 97.0407 31.8484 97.0674 31.9284C97.1074 32.0084 97.174 32.0484 97.2674 32.0484C97.374 32.0484 97.4474 32.0084 97.4874 31.9284C97.5274 31.835 97.554 31.7617 97.5674 31.7084L99.5474 22.3684H102.787L100.247 34.2884ZM102.01 36.3684L104.99 22.3684H108.59L105.61 36.3684H102.01ZM122.591 34.2884C122.524 34.5817 122.424 34.8617 122.291 35.1284C122.171 35.395 121.991 35.635 121.751 35.8484C121.524 36.0484 121.231 36.215 120.871 36.3484C120.511 36.4684 120.078 36.5284 119.571 36.5284C119.331 36.5284 119.091 36.515 118.851 36.4884C118.624 36.4617 118.404 36.4084 118.191 36.3284C117.978 36.235 117.784 36.1017 117.611 35.9284C117.438 35.755 117.291 35.5284 117.171 35.2484L113.671 27.0284C113.551 26.8017 113.444 26.6884 113.351 26.6884C113.311 26.6884 113.258 26.7084 113.191 26.7484C113.124 26.7884 113.071 26.9017 113.031 27.0884L111.051 36.3684H107.811L110.351 24.4084C110.444 23.9817 110.584 23.6284 110.771 23.3484C110.971 23.055 111.211 22.8284 111.491 22.6684C111.771 22.495 112.078 22.375 112.411 22.3084C112.744 22.2417 113.098 22.2084 113.471 22.2084C113.978 22.2084 114.438 22.295 114.851 22.4684C115.278 22.6284 115.591 22.9417 115.791 23.4084L119.331 31.7084C119.358 31.775 119.384 31.8484 119.411 31.9284C119.451 32.0084 119.518 32.0484 119.611 32.0484C119.718 32.0484 119.791 32.0084 119.831 31.9284C119.871 31.835 119.898 31.7617 119.911 31.7084L121.891 22.3684H125.131L122.591 34.2884ZM133.714 25.1684C133.007 25.1684 132.401 25.235 131.894 25.3684C131.401 25.4884 130.974 25.7084 130.614 26.0284C130.267 26.3484 129.974 26.7817 129.734 27.3284C129.494 27.8617 129.287 28.5417 129.114 29.3684C128.954 30.155 128.874 30.8017 128.874 31.3084C128.874 32.175 129.114 32.7684 129.594 33.0884C130.087 33.4084 130.867 33.5684 131.934 33.5684H133.454C133.801 33.5684 134.061 33.5017 134.234 33.3684C134.407 33.2217 134.527 32.975 134.594 32.6284L135.314 29.2484H138.914L137.854 34.2284C137.694 34.9884 137.414 35.535 137.014 35.8684C136.614 36.2017 136.034 36.3684 135.274 36.3684H130.354C129.421 36.3684 128.627 36.255 127.974 36.0284C127.321 35.8017 126.787 35.4817 126.374 35.0684C125.961 34.6417 125.661 34.135 125.474 33.5484C125.287 32.9484 125.194 32.275 125.194 31.5284C125.194 31.1417 125.214 30.735 125.254 30.3084C125.294 29.8817 125.361 29.435 125.454 28.9684C125.667 27.8617 125.934 26.895 126.254 26.0684C126.587 25.2417 127.034 24.555 127.594 24.0084C128.167 23.4617 128.881 23.055 129.734 22.7884C130.587 22.5084 131.654 22.3684 132.934 22.3684H140.054L139.454 25.1684H133.714Z" fill="#FF005C"/>
</svg>
