<svg xmlns="http://www.w3.org/2000/svg" version="1.1" viewBox="0.09 0.11 1014.66 1599.81" width="251.88262642925991" height="397.0103115789312"><path d="M 986.355 63.500 C 986.352 68.450, 986.521 70.601, 986.731 68.280 C 986.940 65.959, 986.943 61.909, 986.736 59.280 C 986.530 56.651, 986.358 58.550, 986.355 63.500 M 415.500 350.424 C 391.930 357.145, 378.776 369.899, 374.631 390.050 C 372.045 402.622, 370.609 416.009, 371.728 417.128 C 372.887 418.287, 386.197 413.421, 398.476 407.350 C 412.116 400.605, 420.574 390.153, 424.429 375.276 C 426.402 367.660, 426.635 347.964, 424.750 348.071 C 424.063 348.111, 419.900 349.169, 415.500 350.424 M 327.293 357.626 C 300.998 371.460, 285.297 388.875, 280.410 409.624 C 278.554 417.504, 278.410 432.349, 279.995 452.406 C 281.324 469.233, 281.805 472, 283.399 472 C 284.118 472, 289.836 468.549, 296.104 464.330 C 321.927 446.952, 332.306 437.342, 338.044 425.500 C 344.248 412.697, 345.507 406.663, 345.452 390 C 345.407 376.202, 344.652 370.562, 341.067 357.250 C 339.587 351.754, 338.392 351.787, 327.293 357.626 M 212.806 405.949 C 196.467 422.704, 187.174 437.140, 181.874 454 C 179.821 460.531, 179.516 463.503, 179.516 477 C 179.516 495.123, 179.861 496.520, 191.436 525.272 C 200.609 548.057, 203.502 554.574, 204.800 555.376 C 206.177 556.227, 211.226 550.321, 225.381 531.299 C 239.449 512.395, 247.095 499.454, 250.668 488.500 C 254.056 478.113, 254.486 459.943, 251.637 447.500 C 247.145 427.880, 230.600 395.020, 225.199 394.991 C 224.265 394.986, 218.688 399.917, 212.806 405.949 M 111.448 500.093 C 95.135 529.158, 89.597 546.970, 89.558 570.500 C 89.545 578.009, 90.100 585.823, 90.872 589 C 94.366 603.390, 100.730 616.967, 109.710 629.191 C 118.795 641.557, 145.070 673.813, 146.507 674.364 C 148.482 675.122, 148.408 675.289, 160.830 642.387 C 173.901 607.768, 174.995 603.838, 175.707 588.942 C 176.808 565.891, 170.162 545.982, 154.189 524.480 C 145.082 512.221, 122.745 490, 119.529 490 C 117.508 490, 116.187 491.650, 111.448 500.093 M 20.684 654.250 C 17.421 668.031, 16.432 704.333, 18.906 719.500 C 21.693 736.583, 27.412 751.641, 36.185 765 C 42.369 774.415, 56.214 788.354, 65.477 794.489 C 83.740 806.586, 132.555 831.845, 134.300 830.100 C 135.728 828.672, 133.571 772.143, 131.510 757 C 129.351 741.140, 126.773 732.191, 120.994 720.500 C 106.426 691.028, 78.258 669.958, 32.575 654.364 C 23.768 651.358, 21.374 651.335, 20.684 654.250 M 527.441 735.500 C 527.442 751.450, 527.580 757.835, 527.748 749.689 C 527.916 741.543, 527.916 728.493, 527.747 720.689 C 527.579 712.885, 527.441 719.550, 527.441 735.500 M 527.445 817 C 527.445 834.325, 527.582 841.413, 527.748 832.750 C 527.915 824.087, 527.915 809.913, 527.748 801.250 C 527.582 792.587, 527.445 799.675, 527.445 817 M 6.500 854.432 C 5.950 854.648, 4.263 855.098, 2.750 855.432 C -0.594 856.169, -0.684 857.486, 1.939 867.268 C 15.277 917.005, 37.786 949.698, 70.321 966.588 C 86.476 974.975, 95.796 977.331, 127.500 981.044 C 147.797 983.421, 180.684 985.650, 181.622 984.712 C 182.520 983.814, 180.290 978.124, 169.785 954.504 C 146.276 901.648, 131.602 882.875, 102.274 868.136 C 92.475 863.212, 82.213 859.658, 69.694 856.854 C 62.009 855.132, 56.151 854.733, 34 854.417 C 19.425 854.210, 7.050 854.216, 6.500 854.432 M 527.441 897.500 C 527.442 913.450, 527.580 919.835, 527.748 911.689 C 527.916 903.543, 527.916 890.493, 527.747 882.689 C 527.579 874.885, 527.441 881.550, 527.441 897.500 M 134.500 1029.392 C 117.779 1032.174, 90.901 1040.992, 79.124 1047.560 C 76.717 1048.902, 74.395 1050, 73.964 1050 C 72.032 1050, 62 1056.567, 62 1057.831 C 62 1060.128, 75.752 1077.538, 86.338 1088.643 C 99.892 1102.861, 124.508 1122.040, 127.126 1120.422 C 127.607 1120.125, 128 1120.302, 128 1120.815 C 128 1121.328, 130.864 1123.115, 134.364 1124.787 C 151.460 1132.953, 173.401 1136.957, 190.469 1135.024 C 207.857 1133.055, 249.932 1121.624, 282.841 1109.928 L 286.181 1108.741 280.341 1102.777 C 273.310 1095.597, 250.225 1073.924, 240.364 1065.246 C 217.256 1044.911, 202.216 1036.242, 180.863 1030.952 C 170.067 1028.277, 146.060 1027.469, 134.500 1029.392 M 301.400 1146.486 C 288.485 1149.296, 274.889 1155.954, 260.476 1166.527 C 252.300 1172.525, 234.983 1188.949, 234.993 1190.696 C 235.004 1192.520, 253.398 1204.368, 264.061 1209.419 C 280.883 1217.388, 290.739 1220.106, 305.059 1220.727 C 317.456 1221.265, 327.962 1220.199, 333.772 1217.814 C 335.272 1217.198, 337.296 1216.540, 338.268 1216.351 C 341.471 1215.728, 353.355 1209.279, 361.952 1203.498 C 374.325 1195.179, 397.486 1178.225, 399.462 1176.042 C 401.081 1174.253, 401.049 1174.080, 398.834 1172.658 C 389.406 1166.603, 346.071 1148.715, 335.583 1146.549 C 326.557 1144.684, 309.822 1144.654, 301.400 1146.486 M 217.481 1484.500 C 217.481 1540.600, 217.602 1563.403, 217.750 1535.174 C 217.897 1506.944, 217.897 1461.044, 217.750 1433.174 C 217.602 1405.303, 217.481 1428.400, 217.481 1484.500 M 453.469 1538.500 C 453.469 1571.500, 453.596 1584.855, 453.750 1568.178 C 453.904 1551.501, 453.903 1524.501, 453.749 1508.178 C 453.595 1491.855, 453.469 1505.500, 453.469 1538.500" stroke="none" fill="#1aa541" fill-rule="evenodd"/><path d="M 0 427.975 L 0 855.950 3.250 855.225 C 5.038 854.826, 18.425 854.530, 33 854.567 C 56.209 854.627, 60.703 854.900, 69.183 856.770 C 82.083 859.615, 92.305 863.126, 102.274 868.136 C 131.602 882.875, 146.276 901.648, 169.785 954.504 C 180.290 978.124, 182.520 983.814, 181.622 984.712 C 179.983 986.350, 122.768 981.210, 102 977.559 C 79.102 973.533, 57.685 961.928, 41.277 944.654 C 24.039 926.507, 11.925 902.427, 1.207 865 C 0.532 862.644, 0.171 982.178, 0.102 1230.750 L 0 1600 434.250 1599.903 C 804.755 1599.821, 867.214 1599.606, 859.742 1598.443 C 819.020 1592.105, 787.722 1565.420, 776.027 1527.066 C 772.169 1514.415, 770.780 1504.199, 770.851 1489.016 C 770.975 1462.640, 778.139 1439.964, 792.339 1421 C 799.004 1412.099, 802.333 1408.720, 810.567 1402.501 C 829.192 1388.434, 848.779 1381.608, 874 1380.398 C 916.119 1378.376, 952.971 1397.589, 971.447 1431.202 C 974.779 1437.263, 981 1452.780, 981 1455.029 C 981 1455.635, 970.159 1456, 952.185 1456 L 923.370 1456 921.817 1452.750 C 919.618 1448.148, 911.774 1439.701, 906.383 1436.130 C 898.312 1430.785, 889.887 1428.528, 878 1428.529 C 862.212 1428.530, 852.827 1432.159, 842.184 1442.378 C 834.883 1449.390, 830.153 1457.291, 826.848 1468 C 824.868 1474.416, 824.540 1477.596, 824.574 1490 C 824.620 1506.686, 826.039 1513.435, 831.824 1524.468 C 836.017 1532.467, 844.295 1541.369, 851.377 1545.497 C 865.834 1553.922, 888.429 1554.237, 903.425 1546.222 C 909.519 1542.964, 918.244 1534.402, 921.026 1528.950 L 923.041 1525 952.020 1525 C 967.959 1525, 981 1525.151, 981 1525.335 C 981 1525.519, 980.057 1528.557, 978.904 1532.085 C 967.165 1568.014, 935.232 1593.889, 896.500 1598.857 C 891.925 1599.444, 911.329 1599.711, 952.500 1599.627 L 1015.500 1599.500 1015.749 799.750 L 1015.998 0 966.249 0.112 C 931.800 0.189, 918.038 0.515, 921.500 1.170 C 936.496 4.009, 950.398 14.870, 970.835 39.712 L 975.123 44.924 968.311 48.066 C 952.722 55.256, 952.430 54.465, 970.789 54.775 L 987.077 55.050 986.789 63.775 L 986.500 72.500 982.250 72.807 L 978 73.115 978 139.057 L 978 205 961.500 205 L 945 205 945 139 L 945 73 933.500 73 L 922 73 922 139 L 922 205 905 205 L 888 205 888 166.024 L 888 127.048 871.250 126.774 L 854.500 126.500 854.178 123.688 C 853.859 120.908, 853.819 120.930, 850.754 125.557 C 845.650 133.263, 838.407 137.779, 826.078 140.941 L 819.657 142.588 825.359 145.473 C 834.416 150.055, 839.026 155.874, 847.335 173.211 C 853.225 185.500, 855.567 189.327, 859.272 192.716 C 864.997 197.952, 867.894 198.735, 874.144 196.737 C 876.815 195.883, 878.969 195.480, 878.931 195.842 C 878.893 196.204, 877.421 201, 875.661 206.500 L 872.461 216.500 867.481 218.266 C 859.462 221.109, 849.053 220.211, 841.140 215.994 C 831.801 211.016, 826.854 204.694, 813.567 180.754 C 796.177 149.422, 791.915 144.442, 783.250 145.322 L 779 145.754 779 131.428 L 779 117.102 782.296 118.479 C 784.109 119.237, 789.263 120.600, 793.748 121.509 C 807.585 124.313, 817.290 120.951, 821.842 111.777 C 827.123 101.136, 824.848 84.613, 817.025 76.790 L 813.235 73 797.618 73 L 782 73 782 64 L 782 55 857.750 54.804 C 899.413 54.696, 935.637 54.689, 938.250 54.788 C 943.971 55.005, 944.149 54.257, 940.662 44.650 C 935.904 31.542, 926.043 22, 917.255 22 C 909.961 22, 905.948 24.981, 906.035 30.332 C 906.093 33.845, 907.960 36.521, 917.842 47.250 L 920.374 50 901.809 50 L 883.244 50 879.372 44.375 C 875.565 38.844, 875.500 38.596, 875.517 29.625 C 875.531 22.226, 875.940 19.743, 877.680 16.500 C 881.721 8.963, 888.200 4.251, 898.230 1.550 C 902.868 0.302, 890.540 0.134, 795.500 0.149 C 700.187 0.165, 688.188 0.333, 693.355 1.584 C 708.934 5.355, 724.729 18.376, 743.893 43.246 C 745.118 44.835, 744.308 45.434, 734.869 49.919 L 724.500 54.845 740.750 54.923 L 757 55 757 64 L 757 73 752.500 73 L 748 73 748 139 L 748 205 731.500 205 L 715 205 715 139 L 715 73 701 73 L 687 73 687 86.500 L 687 100 655.250 100.015 C 631.665 100.026, 622.857 100.355, 621 101.294 C 616.044 103.801, 614.744 111.528, 618.430 116.576 C 619.741 118.371, 621.697 118.536, 647.667 119.034 C 679.921 119.654, 680.962 119.895, 688.928 128.611 C 695.175 135.447, 698.128 142.938, 698.754 153.540 C 700.630 185.303, 678.402 204.279, 636.500 206.689 C 628.175 207.168, 624.993 206.890, 617.500 205.032 C 602.710 201.363, 580 189.812, 580 185.957 C 580 184.231, 588.585 156.619, 589.726 154.676 C 589.992 154.222, 590.869 155.121, 591.674 156.672 C 596.492 165.959, 608.895 178.328, 617.750 182.677 C 625.847 186.653, 636.076 186.696, 644 182.787 C 651.484 179.095, 659.695 170.846, 661.110 165.598 C 663.368 157.222, 659.931 144.970, 654.285 141.265 C 651.966 139.743, 648.289 139.430, 627.548 138.993 L 603.500 138.487 597.500 135.401 C 587.542 130.280, 583.017 122.634, 583.006 110.909 C 582.995 99.839, 586.925 91.887, 594.642 87.364 C 601.907 83.106, 609.290 82.074, 632.750 82.035 L 654 82 654 77.500 L 654 73 618.500 73 L 583 73 583 64 L 583 55 643.750 54.780 C 677.163 54.659, 706.459 54.547, 708.853 54.530 L 713.207 54.500 712.728 50.265 C 711.714 41.294, 702.121 27.183, 694.616 23.622 C 689.747 21.312, 682.882 21.518, 679.635 24.073 C 677.635 25.645, 677 27.039, 677 29.850 C 677 34.091, 678.326 36.319, 685.420 44 L 690.500 49.500 672.590 49.774 C 655.347 50.037, 654.593 49.966, 652.349 47.858 C 643.667 39.702, 643.230 22.253, 651.438 11.493 C 654.266 7.784, 664.257 2.238, 670.232 1.060 C 672.580 0.598, 522.751 0.170, 337.250 0.110 L 0 0 0 427.975 M 0.495 428.500 C 0.495 663.900, 0.610 760.051, 0.750 642.168 C 0.890 524.286, 0.890 331.686, 0.750 214.168 C 0.610 96.651, 0.495 193.100, 0.495 428.500 M 28.667 54.667 C 28.300 55.033, 28 59.083, 28 63.667 L 28 72 31.424 72 L 34.848 72 35.246 114.250 C 35.583 150.081, 35.899 157.385, 37.329 162.328 C 45.592 190.891, 69.392 209.026, 98.500 208.939 C 109.658 208.906, 113.017 207.730, 122.320 200.605 L 129.697 194.955 130.344 183.727 C 130.700 177.552, 130.982 170.025, 130.972 167 L 130.953 161.500 128.578 167.276 C 127.271 170.452, 125.618 173.827, 124.903 174.776 C 118.027 183.904, 110.783 187.987, 101.500 187.968 C 93.667 187.952, 88.351 185.482, 81.580 178.710 C 75.183 172.313, 72.785 167.892, 70.050 157.449 C 68.153 150.208, 68 146.725, 68 110.812 L 68 72 80 72 L 92 72 91.994 91.750 C 91.988 113.859, 91.272 117.928, 86.556 122.644 C 82.387 126.813, 78.786 127.745, 75.406 125.530 C 73.987 124.601, 72.602 124.065, 72.328 124.339 C 72.053 124.613, 73.105 128.812, 74.664 133.669 C 77.323 141.950, 77.749 142.623, 81.500 144.475 C 87.700 147.535, 98.365 147.759, 104.860 144.965 C 113.926 141.065, 121.872 130.221, 124.040 118.789 C 124.568 116.005, 125 104.338, 125 92.864 L 125 72 185.500 72 L 246 72 246 82 C 246 87.500, 245.845 92, 245.657 92 C 245.468 92, 242.724 91.109, 239.559 90.020 C 224.436 84.817, 201.222 83.210, 188.500 86.485 C 172.992 90.478, 160.090 99.935, 154.181 111.642 C 148.865 122.173, 147.585 128.161, 147.585 142.500 C 147.585 161.028, 150.925 171.139, 160.601 181.901 C 167.905 190.025, 175.469 193.925, 187 195.515 C 198.243 197.065, 214.554 191.557, 221.504 183.864 C 229.736 174.752, 234.745 156.728, 233.695 140 C 232.769 125.269, 227.727 115.939, 216.620 108.405 L 211.500 104.932 216 105.528 C 224.789 106.693, 234.576 109.313, 240 111.951 L 245.500 114.627 245.760 159.313 L 246.021 204 262.510 204 L 279 204 279 138 C 279 72.667, 279.020 72, 281 72 C 282.852 72, 283 71.333, 283 63 L 283 54 156.167 54 C 86.408 54, 29.033 54.300, 28.667 54.667 M 303 63 L 303 72 306.500 72 L 310 72 310 110.912 C 310 152.069, 310.526 158.384, 314.930 170.105 C 321.590 187.833, 339.083 202.998, 358 207.443 C 365.822 209.281, 381.148 209.396, 386.020 207.653 C 387.956 206.960, 393.018 203.776, 397.270 200.576 L 405 194.758 405 189.034 C 405 185.887, 405.235 178.404, 405.523 172.406 C 405.946 163.598, 405.821 161.981, 404.873 164 C 404.228 165.375, 402.783 168.505, 401.661 170.957 C 396.978 181.191, 388.788 186.992, 377.920 187.772 C 369.850 188.351, 364.382 186.234, 357.434 179.839 C 350.991 173.910, 348.436 169.536, 345.503 159.412 C 343.021 150.849, 343 150.446, 343 111.388 L 343 72 355 72 L 367 72 367 91.318 C 367 113.519, 365.921 119.206, 360.906 123.425 C 356.713 126.954, 353.547 127.588, 350.406 125.530 C 348.987 124.601, 347.598 124.069, 347.319 124.348 C 347.040 124.627, 348.060 128.936, 349.585 133.923 L 352.359 142.991 357.929 145.094 C 365.628 148.001, 375.920 147.409, 382.257 143.695 C 390.913 138.622, 397.150 128.973, 398.953 117.862 C 399.520 114.363, 399.988 102.612, 399.992 91.750 L 400 72 435.553 72 L 471.107 72 470.803 119.750 C 470.537 161.741, 470.299 167.943, 468.835 171.170 C 466.800 175.653, 463.837 177.380, 459.555 176.576 C 455.532 175.822, 452.747 172.924, 449.860 166.488 C 446.777 159.615, 446.108 145.581, 448.475 137.439 C 451.506 127.013, 459.448 121.494, 466.212 125.113 C 468.014 126.078, 468.224 125.977, 467.778 124.363 C 462.671 105.872, 462.707 105.965, 460.264 105.351 C 458.938 105.019, 454.594 104.956, 450.610 105.211 C 430.708 106.488, 418 124.078, 418 150.345 C 418 167.025, 421.630 177.725, 430.195 186.290 C 436.871 192.966, 444.123 196.105, 454.344 196.741 C 469.454 197.681, 480.844 193.229, 488.222 183.500 C 495.328 174.130, 498.609 161.473, 499.671 139.330 L 500.310 126 510.655 126 L 521 126 521 165 L 521 204 537.500 204 L 554 204 554 138 L 554 72 558.500 72 L 563 72 563 63 L 563 54 433 54 L 303 54 303 63 M 500 89 L 500 106 510.500 106 L 521 106 521 89 L 521 72 510.500 72 L 500 72 500 89 M 847.855 76.488 C 853.684 81.754, 857.390 90.767, 857.420 99.750 L 857.444 107 872.722 107 L 888 107 888 90 L 888 73 865.997 73 L 843.994 73 847.855 76.488 M 198.871 110.006 C 193.989 112.586, 190.613 116.805, 187.887 123.734 C 185.958 128.640, 185.610 131.440, 185.560 142.500 C 185.504 154.610, 185.685 155.896, 188.209 161.281 C 192.812 171.104, 200.711 172.196, 205.285 163.640 C 207.281 159.906, 207.495 158.079, 207.471 145 C 207.449 132.325, 207.175 129.907, 205.295 125.787 C 203.119 121.016, 199.715 118.914, 196.807 120.544 C 196.088 120.947, 198.412 118.290, 201.971 114.639 C 208.359 108.085, 208.404 108.001, 205.471 108.044 C 203.837 108.069, 200.867 108.951, 198.871 110.006 M 518.500 320.583 C 496.010 322.262, 468.183 325.484, 467.138 326.529 C 466.665 327.001, 464.724 332.386, 443.508 392.061 L 432.644 422.622 418.572 427.357 C 289.151 470.903, 190.831 583.409, 164.937 717.586 C 158.860 749.078, 156.399 791.554, 158.915 821.500 C 163.170 872.130, 175.426 916.966, 197.015 960.883 C 242.358 1053.119, 320.468 1122.111, 417.415 1155.557 L 432.330 1160.702 449.415 1208.782 C 458.812 1235.226, 466.822 1257.178, 467.217 1257.564 C 468.145 1258.474, 480.243 1260.390, 496 1262.124 C 512.713 1263.964, 572.923 1263.989, 590 1262.164 C 603.602 1260.710, 618.848 1258.493, 619.437 1257.883 C 619.641 1257.672, 625.727 1240.850, 632.963 1220.500 C 640.198 1200.150, 648.038 1178.142, 650.384 1171.593 L 654.650 1159.685 665.575 1156.004 C 681.582 1150.609, 693.703 1145.656, 709.870 1137.905 L 724.239 1131.016 732.370 1134.839 C 742.259 1139.489, 757.101 1146.534, 791.967 1163.128 L 818.500 1175.756 822.822 1172.657 C 854.049 1150.264, 892.114 1112.794, 917.692 1079.268 L 926.262 1068.036 924.191 1063.268 C 923.052 1060.646, 913.969 1041.400, 904.006 1020.500 C 894.044 999.600, 884.953 980.342, 883.804 977.705 L 881.715 972.911 889.270 957.205 C 895.852 943.522, 901.730 928.884, 908.610 909.051 L 910.500 903.603 929 896.997 C 939.175 893.364, 961.296 885.492, 978.157 879.504 L 1008.814 868.616 1009.951 861.058 C 1013.468 837.674, 1014.319 824.609, 1014.382 793 C 1014.422 772.881, 1013.961 756.119, 1013.171 749 C 1011.254 731.711, 1008.979 716.575, 1008.197 715.892 C 1007.813 715.557, 985.588 707.509, 958.806 698.006 L 910.112 680.728 907.966 673.614 C 904.714 662.838, 895.546 640.137, 888.228 624.739 L 881.688 610.978 887.277 599.239 C 915.380 540.212, 926 517.604, 926 516.803 C 926 516.285, 922.976 511.955, 919.280 507.180 C 891.056 470.724, 861.640 441.323, 827.184 415.131 L 818.869 408.810 814.184 410.838 C 811.608 411.953, 790.629 421.896, 767.564 432.933 C 744.499 443.970, 725.105 453, 724.465 453 C 723.825 453, 716.821 449.906, 708.901 446.124 C 693.176 438.616, 681.338 433.791, 665.058 428.252 L 654.483 424.654 649.148 409.577 C 646.213 401.285, 638.346 379.123, 631.665 360.330 L 619.518 326.160 612.009 325.080 C 591.242 322.093, 575.131 320.914, 550.500 320.578 C 535.650 320.375, 521.250 320.377, 518.500 320.583 M 415.500 350.424 C 391.930 357.145, 378.776 369.899, 374.631 390.050 C 372.045 402.622, 370.609 416.009, 371.728 417.128 C 372.887 418.287, 386.197 413.421, 398.476 407.350 C 412.116 400.605, 420.574 390.153, 424.429 375.276 C 426.402 367.660, 426.635 347.964, 424.750 348.071 C 424.063 348.111, 419.900 349.169, 415.500 350.424 M 327.293 357.626 C 300.998 371.460, 285.297 388.875, 280.410 409.624 C 278.554 417.504, 278.410 432.349, 279.995 452.406 C 281.324 469.233, 281.805 472, 283.399 472 C 284.118 472, 289.836 468.549, 296.104 464.330 C 321.927 446.952, 332.306 437.342, 338.044 425.500 C 344.248 412.697, 345.507 406.663, 345.452 390 C 345.407 376.202, 344.652 370.562, 341.067 357.250 C 339.587 351.754, 338.392 351.787, 327.293 357.626 M 212.806 405.949 C 196.467 422.704, 187.174 437.140, 181.874 454 C 179.821 460.531, 179.516 463.503, 179.516 477 C 179.516 495.123, 179.861 496.520, 191.436 525.272 C 200.609 548.057, 203.502 554.574, 204.800 555.376 C 206.177 556.227, 211.226 550.321, 225.381 531.299 C 239.449 512.395, 247.095 499.454, 250.668 488.500 C 254.056 478.113, 254.486 459.943, 251.637 447.500 C 247.145 427.880, 230.600 395.020, 225.199 394.991 C 224.265 394.986, 218.688 399.917, 212.806 405.949 M 111.448 500.093 C 95.135 529.158, 89.597 546.970, 89.558 570.500 C 89.545 578.009, 90.100 585.823, 90.872 589 C 94.366 603.390, 100.730 616.967, 109.710 629.191 C 118.795 641.557, 145.070 673.813, 146.507 674.364 C 148.482 675.122, 148.408 675.289, 160.830 642.387 C 173.901 607.768, 174.995 603.838, 175.707 588.942 C 176.808 565.891, 170.162 545.982, 154.189 524.480 C 145.082 512.221, 122.745 490, 119.529 490 C 117.508 490, 116.187 491.650, 111.448 500.093 M 526 501.684 C 475.851 504.545, 424.508 521.824, 382.381 550.018 C 371.880 557.046, 355.864 569.197, 356.397 569.731 C 356.566 569.899, 368.358 568.218, 382.602 565.994 C 396.846 563.771, 423.125 559.678, 441 556.899 C 458.875 554.119, 478.450 550.967, 484.500 549.893 C 506.991 545.900, 518.960 544.788, 533.500 545.339 C 541.640 545.647, 549.927 546.543, 553.299 547.479 C 558.346 548.879, 586.747 563.610, 678.754 612.548 C 689.343 618.181, 698.664 623.041, 699.467 623.349 C 700.529 623.757, 701.096 622.901, 701.551 620.205 C 702.900 612.196, 701.650 612.767, 716.847 613.218 C 731.837 613.662, 737.326 615.131, 746.363 621.117 C 752.283 625.038, 760.426 633.334, 763.426 638.500 C 764.704 640.700, 768.106 648.902, 770.987 656.727 L 776.225 670.954 772.458 692.227 L 768.691 713.500 769.364 758 C 769.734 782.475, 770.495 821.676, 771.055 845.114 C 772.171 891.791, 771.948 894.884, 766.394 909.724 C 761.194 923.620, 751.206 938.164, 739.587 948.759 C 732.525 955.198, 715.275 963.945, 702.500 967.564 C 697.550 968.967, 685.175 973.499, 675 977.637 C 627.987 996.755, 615.858 1000.519, 596.500 1001.996 C 570.154 1004.006, 527.422 997.637, 499 987.463 C 476.439 979.387, 460 966.435, 460 956.736 C 460 952.188, 465.389 945.446, 471.359 942.525 C 476.212 940.151, 478.098 939.809, 486.209 939.831 C 493.830 939.852, 498.377 940.605, 511.500 944.023 C 534.523 950.018, 535.627 950.199, 545 949.512 C 557.489 948.597, 567.989 945.719, 598.382 934.880 C 616.107 928.558, 621.371 925.886, 624.875 921.431 C 628.668 916.610, 626.740 909.550, 620.733 906.267 C 617.986 904.765, 615.623 904.567, 605 904.943 C 578.224 905.892, 572.816 905.665, 568.500 903.413 C 563.737 900.928, 560 895.823, 560 891.802 C 560 885.307, 566.607 878.041, 575.288 874.990 C 578.410 873.893, 588.061 872.084, 596.733 870.970 C 605.405 869.857, 618.575 867.849, 626 866.508 C 664.746 859.511, 674.595 858.754, 690.605 861.546 C 695.482 862.397, 703.304 864.378, 707.986 865.948 C 712.669 867.519, 716.640 868.671, 716.811 868.507 C 717.127 868.207, 708.173 811.484, 692.959 717.391 C 690.294 700.909, 689.245 691.728, 689.643 688.368 L 690.225 683.455 624.127 653.126 C 561.958 624.601, 557.597 622.759, 550.764 622.144 C 533.978 620.633, 519.592 624.074, 475.556 640.134 C 463.425 644.558, 426.725 658.001, 394 670.007 C 361.275 682.013, 318.300 697.761, 298.500 705.002 C 278.700 712.243, 262.323 718.344, 262.106 718.561 C 261.390 719.276, 257.219 739.301, 255.350 751 C 253.867 760.276, 253.512 768.206, 253.512 792 C 253.512 824.020, 254.317 832.131, 259.964 857 C 283.911 962.465, 364.949 1046.213, 469.484 1073.527 C 584.648 1103.618, 705.885 1060.919, 776.850 965.274 C 839.752 880.496, 851.561 767.230, 807.516 671.142 C 776.701 603.915, 720.962 550.535, 652.500 522.685 C 612.662 506.479, 569 499.230, 526 501.684 M 20.684 654.250 C 17.421 668.031, 16.432 704.333, 18.906 719.500 C 21.693 736.583, 27.412 751.641, 36.185 765 C 42.369 774.415, 56.214 788.354, 65.477 794.489 C 83.740 806.586, 132.555 831.845, 134.300 830.100 C 135.728 828.672, 133.571 772.143, 131.510 757 C 129.351 741.140, 126.773 732.191, 120.994 720.500 C 106.426 691.028, 78.258 669.958, 32.575 654.364 C 23.768 651.358, 21.374 651.335, 20.684 654.250 M 524 676.660 C 507.847 679.166, 501.593 680.532, 493.275 683.369 C 442.992 700.521, 407.863 741.853, 398.823 794.500 C 395.168 815.785, 397.331 841.648, 404.510 862.500 C 407.624 871.547, 414.280 885.272, 419.539 893.494 C 424.291 900.922, 437.092 916.080, 442.189 920.314 L 446.312 923.739 453.684 919.969 C 461.405 916.020, 474.428 913.249, 480.839 914.190 C 482.578 914.445, 484 914.548, 484 914.419 C 484 914.290, 480.288 911.701, 475.750 908.666 C 462.967 900.115, 447.143 883.246, 441.590 872.250 L 439.949 869 454.844 869 L 469.740 869 470.977 873.750 C 473.858 884.814, 478.447 898.076, 482.189 906.151 L 486.198 914.803 490.694 915.477 C 493.166 915.848, 499.756 917.433, 505.337 919 C 510.918 920.567, 515.567 921.766, 515.668 921.666 C 515.768 921.565, 513.876 918.843, 511.462 915.616 C 503.751 905.308, 494.666 885.256, 491.589 871.750 L 490.962 869 508.966 869 L 526.969 869 527.235 897.745 L 527.500 926.490 533.223 928.760 C 536.371 930.009, 540.984 931.310, 543.473 931.651 L 548 932.272 548 900.636 L 548 869 551.935 869 C 555.340 869, 556.585 868.293, 561.185 863.750 C 570.463 854.586, 582.513 849.874, 600.380 848.424 L 608.889 847.734 609.660 842.117 C 610.669 834.758, 610.711 803.755, 609.727 793.250 L 608.953 785 626.438 785 L 643.923 785 645.035 789.130 C 648.495 801.981, 649.196 823.972, 646.573 837.430 C 645.723 841.792, 645.134 845.435, 645.264 845.526 C 645.758 845.872, 675.105 843.228, 675.535 842.799 C 676.883 841.450, 678 830.030, 677.996 817.614 C 677.989 793.343, 673.940 775.739, 663.480 754.500 C 655.750 738.803, 647.416 727.502, 634.382 715.042 C 613.032 694.631, 586.904 681.920, 557.257 677.520 C 547.960 676.140, 530.295 675.684, 524 676.660 M 524.500 706.718 C 518.333 708.216, 509.224 719.447, 501.995 734.465 C 497.569 743.660, 493.184 755.377, 491.597 762.250 L 490.962 765 508.981 765 L 527 765 527 735.500 C 527 719.275, 526.888 706.052, 526.750 706.116 C 526.612 706.180, 525.600 706.451, 524.500 706.718 M 548 735.639 L 548 765 566 765 C 580.822 765, 584 764.751, 584 763.590 C 584 761.047, 578.128 744.147, 574.566 736.436 C 567.692 721.559, 556.644 707.792, 550.750 706.759 L 548 706.277 548 735.639 M 480.649 721.913 C 466.844 729.975, 450.412 746.457, 442.653 760.023 L 439.807 765 454.785 765 L 469.763 765 470.926 760.250 C 473.271 750.681, 478.269 736.288, 482.094 728.092 C 484.252 723.468, 485.889 719.556, 485.732 719.398 C 485.574 719.241, 483.287 720.372, 480.649 721.913 M 593.051 727.369 C 597.293 736.420, 601.998 750.073, 604.039 759.250 L 605.318 765 620.159 765 C 628.482 765, 635 764.598, 635 764.084 C 635 761.669, 623.643 746.573, 616.029 738.869 C 609.156 731.913, 592.019 719, 589.662 719 C 589.369 719, 590.894 722.766, 593.051 727.369 M 429.414 793.250 C 426.736 804.793, 426.726 829.132, 429.395 840.750 L 431.289 849 448.395 849 L 465.500 849 465.500 817 L 465.500 785 448.414 785 L 431.327 785 429.414 793.250 M 486.326 790.750 C 485.876 793.913, 485.508 805.725, 485.508 817 C 485.508 828.275, 485.876 840.087, 486.326 843.250 L 487.144 849 507.072 849 L 527 849 527 817 L 527 785 507.072 785 L 487.144 785 486.326 790.750 M 548 817 L 548 849 567.955 849 L 587.909 849 588.705 845.250 C 589.725 840.439, 589.747 791.385, 588.731 787.750 L 587.962 785 567.981 785 L 548 785 548 817 M 0.495 1231 C 0.495 1434.225, 0.610 1517.363, 0.750 1415.750 C 0.890 1314.138, 0.890 1147.863, 0.750 1046.250 C 0.610 944.638, 0.495 1027.775, 0.495 1231 M 134.500 1029.392 C 116.554 1032.378, 94.215 1039.884, 75.386 1049.254 C 63.861 1054.990, 62 1056.187, 62 1057.861 C 62 1060.132, 75.812 1077.601, 86.338 1088.643 C 101.131 1104.162, 115.944 1115.515, 131.603 1123.338 C 150.536 1132.797, 172.184 1137.095, 190.469 1135.024 C 207.857 1133.055, 249.932 1121.624, 282.841 1109.928 L 286.181 1108.741 280.341 1102.777 C 273.310 1095.597, 250.225 1073.924, 240.364 1065.246 C 217.256 1044.911, 202.216 1036.242, 180.863 1030.952 C 170.067 1028.277, 146.060 1027.469, 134.500 1029.392 M 301.400 1146.486 C 288.485 1149.296, 274.889 1155.954, 260.476 1166.527 C 252.300 1172.525, 234.983 1188.949, 234.993 1190.696 C 235.004 1192.520, 253.398 1204.368, 264.061 1209.419 C 269.272 1211.887, 277.802 1215.357, 283.018 1217.129 C 292.132 1220.226, 293.140 1220.354, 309 1220.426 C 327.408 1220.509, 333.788 1219.176, 346.957 1212.499 C 356.904 1207.456, 394.924 1181.056, 399.462 1176.042 C 401.081 1174.253, 401.049 1174.080, 398.834 1172.658 C 389.406 1166.603, 346.071 1148.715, 335.583 1146.549 C 326.557 1144.684, 309.822 1144.654, 301.400 1146.486 M 24.917 1488.250 C 24.871 1546.138, 24.721 1594.513, 24.584 1595.750 L 24.334 1598 50.667 1598 L 77 1598 77.059 1531.750 C 77.105 1480.144, 77.381 1465.895, 78.309 1467.289 C 82.675 1473.847, 142.772 1564.911, 152.515 1579.733 L 164.500 1597.965 191.250 1597.983 L 218 1598 218 1490.500 L 218 1383 191.507 1383 L 165.014 1383 164.757 1449.250 L 164.500 1515.500 157.892 1505.500 C 145.440 1486.655, 90.817 1403.507, 84.156 1393.257 L 77.500 1383.014 51.250 1383.007 L 25 1383 24.917 1488.250 M 262 1490.486 L 262 1598 287.993 1598 L 313.985 1598 314.243 1533.750 L 314.500 1469.500 338.500 1533.738 L 362.500 1597.975 384 1597.981 L 405.500 1597.987 412.222 1579.743 C 415.919 1569.709, 426.595 1541.025, 435.945 1516 L 452.947 1470.500 452.973 1534.250 L 453 1598 479.500 1598 L 506 1598 506 1490.486 L 506 1382.972 474.909 1383.236 L 443.819 1383.500 414.423 1456.903 C 398.255 1497.275, 384.802 1530.532, 384.527 1530.807 C 384.251 1531.082, 383.400 1529.775, 382.635 1527.904 C 380.486 1522.650, 339.631 1421.754, 331.451 1401.500 L 324.180 1383.500 293.090 1383.236 L 262 1382.972 262 1490.486 M 550 1490.500 L 550 1598.128 602.250 1597.740 L 654.500 1597.351 664.058 1594.784 C 692.213 1587.224, 712.157 1573.575, 726.437 1552.094 C 749.280 1517.733, 749.608 1464.891, 727.193 1430 C 713.138 1408.120, 692.606 1393.881, 664.058 1386.216 L 654.500 1383.649 602.250 1383.260 L 550 1382.872 550 1490.500 M 602 1490.615 L 602 1553.230 622.250 1552.721 C 644.799 1552.154, 650.040 1551.161, 661.124 1545.355 C 674.014 1538.602, 682.715 1528.010, 687.292 1513.500 C 689.186 1507.496, 689.500 1504.222, 689.500 1490.500 C 689.500 1476.747, 689.189 1473.517, 687.282 1467.500 C 681.052 1447.838, 667.485 1435.111, 647.234 1429.932 C 641.081 1428.358, 636.185 1428, 620.840 1428 L 602 1428 602 1490.615" stroke="none" fill="none" fill-rule="evenodd"/><path d="M 669.500 1.386 C 658.701 4.012, 651.023 9.913, 647.531 18.272 C 645.154 23.961, 645.490 36.261, 648.170 41.626 C 652.410 50.116, 652.314 50.084, 672.425 49.774 L 690.170 49.500 683.678 42.124 C 680.107 38.067, 677.002 33.792, 676.779 32.624 C 676.060 28.861, 677.831 24.398, 680.532 23.167 C 684.044 21.567, 691.520 21.701, 694.852 23.423 C 698.423 25.270, 704.997 32.432, 708.311 38.087 C 710.951 42.592, 714.136 52.865, 713.323 54.250 C 713.080 54.663, 683.659 55, 647.941 55 L 583 55 583 64 L 583 73 618.500 73 L 654 73 654 77.500 L 654 82 632.947 82 C 601.723 82, 592.248 84.884, 586.296 96.202 C 583.816 100.917, 583.509 102.546, 583.505 111 C 583.500 119.587, 583.767 120.953, 586.273 125.218 C 589.129 130.075, 594.856 134.668, 601 137.026 C 603.403 137.949, 612.067 138.547, 628.648 138.935 C 655.720 139.568, 655.026 139.375, 659.333 147.500 C 660.950 150.549, 661.459 153.312, 661.477 159.123 C 661.504 167.982, 659.941 170.924, 651.500 177.904 C 637.859 189.183, 621.820 188.396, 607.444 175.742 C 601.443 170.459, 591.010 157.441, 590.970 155.184 C 590.941 153.619, 590.869 153.620, 589.945 155.206 C 588.138 158.304, 579.853 184.998, 580.180 186.668 C 580.596 188.798, 595.297 197.198, 605.483 201.126 C 618.032 205.965, 625.916 207.295, 637.745 206.568 C 665.224 204.877, 686.246 194.449, 693.976 178.672 C 699.628 167.136, 700.459 151.507, 696.043 139.798 C 693.376 132.728, 686.550 124.982, 680.261 121.890 C 675.697 119.647, 674.424 119.538, 649.500 119.251 C 635.200 119.086, 622.475 118.726, 621.221 118.450 C 615.594 117.209, 614.542 106.078, 619.672 102.043 C 622.167 100.081, 623.555 100, 654.635 100 L 687 100 687 86.500 L 687 73 701 73 L 715 73 715 139 L 715 205 731.500 205 L 748 205 748 139 L 748 73 752.500 73 L 757 73 757 64 L 757 55 740.750 54.923 L 724.500 54.845 734.822 49.941 L 745.144 45.036 740.403 38.768 C 737.796 35.321, 730.676 27.535, 724.581 21.467 C 716.302 13.224, 711.704 9.500, 706.397 6.740 C 694.331 0.464, 681.154 -1.448, 669.500 1.386 M 900.045 1.026 C 888.465 3.469, 879.255 11.035, 876.477 20.388 C 873.601 30.073, 874.861 37.820, 880.682 46.250 L 883.272 50 901.653 50 L 920.033 50 913.017 41.880 C 904.983 32.583, 904.017 28.892, 908.455 24.455 C 911.615 21.294, 919.251 21.067, 924.932 23.966 C 932.322 27.736, 941.014 40.984, 942.599 50.892 C 943.278 55.142, 943.259 55.179, 940.392 54.984 C 938.802 54.876, 902.513 54.836, 859.750 54.894 L 782 55 782 64 L 782 73 797.423 73 C 812.742 73, 812.868 73.018, 816.074 75.715 C 817.848 77.209, 820.445 80.921, 821.843 83.965 C 823.960 88.571, 824.390 91.010, 824.411 98.500 C 824.444 110.814, 821.725 116.070, 813 120.560 C 807.791 123.240, 795.552 122.879, 786.250 119.772 L 779 117.351 779 131.432 L 779 145.514 783.250 145.214 C 792.052 144.593, 796.626 149.987, 814 181.481 C 826.731 204.557, 832.359 211.599, 842.011 216.526 C 849.138 220.164, 860.055 220.912, 867.406 218.266 L 872.313 216.500 875.636 206 C 877.464 200.225, 878.969 195.407, 878.980 195.294 C 878.991 195.181, 877.143 195.744, 874.874 196.544 C 869.593 198.408, 867.637 198.376, 863.700 196.365 C 857.351 193.121, 854.741 189.265, 845.147 168.950 C 839.085 156.114, 833.450 149.503, 825.002 145.316 L 818.870 142.276 823.042 141.609 C 834.665 139.751, 845.555 133.406, 850.854 125.407 C 853.837 120.904, 853.857 120.893, 854.178 123.688 L 854.500 126.500 871.250 126.774 L 888 127.048 888 166.024 L 888 205 905 205 L 922 205 922 139 L 922 73 933.500 73 L 945 73 945 139 L 945 205 961.500 205 L 978 205 978 139 L 978 73 982 73 L 986 73 986 64 L 986 55 970.441 55 C 961.884 55, 955.092 54.663, 955.350 54.250 C 955.607 53.837, 959.908 51.714, 964.909 49.532 C 969.909 47.349, 974 45.188, 974 44.728 C 974 43.090, 962.453 29.357, 954.006 20.948 C 939.962 6.969, 928.420 1.209, 913 0.485 C 908.325 0.266, 902.495 0.509, 900.045 1.026 M 28.907 54.750 C 28.460 58.336, 28.298 68.860, 28.669 70.250 C 28.974 71.398, 30.115 72, 31.983 72 L 34.832 72 35.257 114.250 C 35.696 157.833, 35.746 158.388, 40.231 170 C 49.395 193.725, 72.661 209.096, 99.197 208.956 C 109.636 208.901, 112.676 207.797, 122.270 200.576 C 129.771 194.930, 130 194.632, 130 190.536 C 130 188.214, 130.255 180.731, 130.566 173.907 L 131.132 161.500 128.672 167.264 C 122.824 180.966, 113.539 188, 101.300 188 C 93.369 188, 88.608 185.739, 81.435 178.565 C 75.194 172.324, 72.528 167.383, 69.938 157.259 C 68.184 150.399, 68 145.995, 68 110.840 L 68 72 80 72 L 92 72 91.978 92.750 C 91.959 110.784, 91.714 114.034, 90.104 117.579 C 86.783 124.890, 80.016 128.551, 75.406 125.530 C 73.987 124.601, 72.594 124.073, 72.309 124.358 C 72.024 124.642, 73.109 128.841, 74.718 133.687 C 77.426 141.842, 77.938 142.648, 81.572 144.477 C 84.548 145.975, 87.559 146.459, 94 146.477 C 101.490 146.497, 103.054 146.174, 107.166 143.757 C 115.897 138.624, 122.301 128.904, 124.072 118.096 C 124.576 115.018, 124.991 103.388, 124.994 92.250 L 125 72 185.500 72 L 246 72 246 82 C 246 87.500, 245.605 92, 245.122 92 C 244.639 92, 242.727 91.370, 240.872 90.601 C 226.247 84.532, 198.672 83.027, 184.761 87.538 C 161.715 95.013, 149.511 111.276, 147.448 137.264 C 144.577 173.440, 167.679 199.763, 198.160 195.046 C 221.828 191.384, 233.114 175.353, 233.394 145 C 233.523 131.046, 231.761 124.407, 225.992 117.109 C 223.791 114.325, 219.630 110.446, 216.745 108.489 L 211.500 104.932 216 105.538 C 224.967 106.746, 235.055 109.407, 240.222 111.926 L 245.500 114.500 245.760 159.250 L 246.021 204 262.510 204 L 279 204 279 138 C 279 72.667, 279.020 72, 281 72 C 282.852 72, 283 71.333, 283 63 L 283 54 156 54 C 86.150 54, 28.958 54.337, 28.907 54.750 M 303 63 L 303 72 306.441 72 L 309.882 72 310.242 114.250 C 310.639 160.687, 310.791 162.025, 317.150 174.716 C 323.497 187.384, 336.475 199.668, 348.500 204.389 C 359.684 208.780, 378.371 210.388, 386.102 207.625 C 388.083 206.917, 393.145 203.688, 397.352 200.450 L 405 194.563 405 187.435 C 405 183.515, 405.241 176.076, 405.535 170.904 L 406.070 161.500 404.058 166.233 C 397.789 180.985, 388.942 187.933, 376.372 187.978 C 368.634 188.006, 364.108 186.113, 357.761 180.193 C 351.647 174.491, 349.060 170.507, 345.946 162 C 343.606 155.607, 343.562 154.815, 343.233 113.750 L 342.899 72 354.949 72 L 367 72 366.976 91.250 C 366.944 116.932, 365.836 121.037, 357.741 125.469 C 354.299 127.354, 353.989 127.365, 350.572 125.736 C 348.607 124.799, 347 124.274, 347 124.569 C 347 124.864, 348.200 129.113, 349.666 134.011 C 352.257 142.667, 352.445 142.962, 356.416 144.573 C 371.694 150.773, 387.631 144.624, 394.976 129.697 C 399.134 121.248, 399.987 114.792, 399.994 91.750 L 400 72 435.553 72 L 471.106 72 470.803 120.250 C 470.528 164.074, 470.339 168.795, 468.740 171.720 C 466.493 175.830, 463.634 177.342, 459.555 176.576 C 448.319 174.468, 442.515 147.727, 450.069 132.876 C 453.835 125.471, 460.707 122.167, 466.212 125.113 C 468.580 126.381, 468.705 127.418, 464.904 114.251 C 462.615 106.320, 462.393 105.977, 459.166 105.371 C 453.745 104.354, 443.754 105.573, 439.471 107.775 C 425.602 114.901, 418 130.224, 418 151.053 C 418 172.199, 426.862 188.240, 441.812 194.152 C 450.129 197.442, 467.335 197.472, 474.445 194.209 C 489.295 187.395, 496.240 174.805, 498.948 149.789 C 499.527 144.449, 500 136.911, 500 133.039 L 500 126 510.500 126 L 521 126 521 165 L 521 204 537.500 204 L 554 204 554 138 L 554 72 558.500 72 L 563 72 563 63 L 563 54 433 54 L 303 54 303 63 M 500 89 L 500 106 510.500 106 L 521 106 521 89 L 521 72 510.500 72 L 500 72 500 89 M 847.855 76.488 C 853.739 81.803, 857.407 90.782, 857.360 99.750 L 857.323 107 872.661 107 L 888 107 888 90 L 888 73 865.997 73 L 843.994 73 847.855 76.488 M 204.500 107.999 C 196.558 109.764, 191.497 114.558, 187.887 123.734 C 185.958 128.640, 185.610 131.440, 185.560 142.500 C 185.502 155.002, 185.615 155.730, 188.500 161.500 C 192.195 168.891, 195.262 170.753, 200.282 168.656 C 206.197 166.184, 207.506 161.874, 207.466 145 C 207.436 132.308, 207.161 129.906, 205.265 125.735 C 203.516 121.886, 202.498 120.850, 199.970 120.344 L 196.841 119.718 202.614 113.885 C 205.788 110.677, 208.186 107.890, 207.943 107.692 C 207.699 107.494, 206.150 107.632, 204.500 107.999 M 512 321.126 C 496.672 322.155, 467.784 325.774, 466.945 326.770 C 466.606 327.172, 460.791 343.250, 454.022 362.500 C 447.253 381.750, 439.717 403.161, 437.275 410.080 L 432.835 422.659 425.668 424.931 C 329.856 455.301, 248.624 523.746, 201.278 614 C 180.314 653.962, 166.677 698.117, 160.356 746.500 C 157.556 767.938, 157.763 817.637, 160.744 839.500 C 171.725 920.037, 202.945 988.515, 256.028 1048.500 C 298.446 1096.432, 354.670 1133.718, 417.444 1155.545 L 432.387 1160.742 438.196 1177.121 C 441.391 1186.129, 449.020 1207.675, 455.151 1225 C 461.281 1242.325, 466.660 1256.908, 467.104 1257.406 C 467.549 1257.905, 471.870 1258.907, 476.706 1259.633 C 506.143 1264.056, 552.931 1265.285, 584.371 1262.462 C 600.073 1261.052, 618.834 1258.567, 619.475 1257.811 C 619.840 1257.380, 624.108 1245.496, 636.464 1210.500 C 642.290 1194, 648.750 1175.831, 650.821 1170.125 L 654.587 1159.750 669.543 1154.516 C 685.043 1149.091, 702.742 1141.640, 716.403 1134.788 L 724.307 1130.824 736.403 1136.586 C 743.056 1139.756, 755.700 1145.789, 764.500 1149.992 C 773.300 1154.195, 785.675 1160.073, 792 1163.054 C 798.325 1166.035, 806.875 1170.105, 811 1172.098 L 818.500 1175.722 829.130 1167.611 C 861.926 1142.588, 896.325 1107.973, 920.300 1075.868 C 923.435 1071.670, 926 1067.992, 926 1067.695 C 926 1067.398, 923.810 1062.507, 921.133 1056.827 C 912.898 1039.352, 899.089 1010.263, 891.430 994.259 C 880.406 971.223, 880.672 974.924, 888.820 958 C 896.037 943.011, 902.698 926.642, 907.477 912.151 C 909.892 904.827, 910.615 903.646, 913.365 902.529 C 915.089 901.829, 937.200 893.938, 962.500 884.993 C 987.800 876.048, 1008.568 868.678, 1008.651 868.615 C 1008.947 868.389, 1011.991 845.324, 1013.002 835.651 C 1014.791 818.525, 1015.312 784.517, 1014.083 765 C 1012.649 742.225, 1009.439 716.889, 1007.862 715.915 C 1006.869 715.301, 963.257 699.616, 921.859 684.984 L 910.219 680.870 905.984 668.185 C 901.403 654.460, 892.332 632.594, 885.976 619.951 C 883.789 615.603, 882 611.618, 882 611.096 C 882 610.575, 891.717 589.752, 903.593 564.824 C 915.469 539.896, 925.407 518.769, 925.677 517.875 C 926.976 513.574, 888.920 469.317, 864.500 446.732 C 850.704 433.971, 829.619 416.423, 822.122 411.462 L 818.285 408.923 809.892 412.851 C 805.277 415.012, 795.650 419.579, 788.500 423.001 C 781.350 426.423, 771.450 431.149, 766.500 433.502 C 761.550 435.856, 750.347 441.206, 741.605 445.391 C 732.862 449.576, 725.168 453, 724.506 453 C 723.844 453, 717.272 450.128, 709.901 446.618 C 694.909 439.479, 677.015 432.237, 663.500 427.839 L 654.500 424.911 646.647 402.705 C 642.328 390.492, 634.469 368.285, 629.183 353.357 L 619.571 326.213 615.035 325.570 C 578.230 320.350, 544.952 318.915, 512 321.126 M 525 501.607 C 514.282 502.362, 494.340 505.206, 482.603 507.654 C 437.959 516.968, 392.147 539.172, 358 568.048 L 355.500 570.162 359.500 569.585 C 364.432 568.874, 411.149 561.632, 427.500 559.043 C 434.100 557.999, 445.800 556.176, 453.500 554.994 C 461.200 553.811, 476.950 551.215, 488.500 549.225 C 507.320 545.982, 511.420 545.600, 528 545.553 C 551.598 545.485, 552.974 545.886, 582 561.289 C 616.811 579.761, 620.215 581.563, 657 600.994 C 675.975 611.017, 693.467 620.344, 695.871 621.722 C 700.678 624.476, 701.955 623.895, 701.985 618.941 C 701.993 617.534, 702.597 615.566, 703.327 614.567 C 704.523 612.932, 705.928 612.799, 717.577 613.222 C 735.330 613.866, 743.674 617.280, 755.233 628.629 C 762.168 635.439, 765.183 640.836, 770.963 656.788 L 776.141 671.076 772.254 693.788 L 768.367 716.500 769.125 756 C 769.543 777.725, 770.369 816.239, 770.962 841.587 C 772.152 892.420, 772.075 893.518, 766.153 909.744 C 760.979 923.921, 751.880 937.340, 739.960 948.377 C 732.640 955.153, 715.726 963.817, 702.500 967.564 C 697.550 968.967, 685.175 973.499, 675 977.637 C 644.606 989.997, 629.024 995.753, 617.967 998.705 C 607.858 1001.404, 606.679 1001.499, 583.500 1001.458 C 558.397 1001.415, 548.062 1000.251, 525.111 994.882 C 492.525 987.259, 468.062 974.882, 461.965 962.932 C 459.309 957.724, 459.486 955.202, 462.885 949.843 C 467.395 942.731, 473.798 940, 485.963 940 C 493.721 940, 498.179 940.686, 509.516 943.623 C 533.713 949.892, 535.780 950.236, 545.178 949.562 C 557.610 948.670, 574.037 943.989, 605.839 932.278 C 615.803 928.608, 619.152 926.862, 622.642 923.519 C 627.604 918.764, 628.210 915.497, 625.081 910.365 C 622.109 905.491, 615.895 903.564, 605.734 904.367 C 578.008 906.557, 575.543 906.500, 569.473 903.531 C 557.846 897.842, 556.834 888.433, 566.921 879.800 C 572.224 875.260, 579.214 873.216, 597.349 870.901 C 605.682 869.837, 619.925 867.646, 629 866.030 C 673.213 858.162, 684.190 858.147, 707.457 865.926 C 712.383 867.573, 716.599 868.735, 716.825 868.508 C 717.052 868.282, 716.515 863.687, 715.634 858.298 C 712.377 838.393, 706.888 804.190, 699.055 755 C 694.633 727.225, 690.583 701.904, 690.056 698.731 C 689.530 695.558, 689.354 690.810, 689.665 688.180 L 690.232 683.397 675.366 676.573 C 667.190 672.820, 646.775 663.453, 630 655.758 C 613.225 648.063, 590.275 637.523, 579 632.336 C 560.926 624.022, 557.612 622.822, 551 622.201 C 533.813 620.587, 518.291 624.446, 468 642.839 C 429.968 656.748, 354.407 684.432, 300.515 704.202 C 279.623 711.866, 262.359 718.308, 262.149 718.517 C 261.940 718.726, 260.915 722.565, 259.871 727.049 C 254.197 751.417, 251.845 779.867, 253.179 807.998 C 255.883 864.996, 275.812 920.010, 310.596 966.500 C 334.782 998.824, 362.714 1023.597, 398.566 1044.519 C 431.034 1063.467, 467.133 1075.560, 508 1081.179 C 520.651 1082.919, 566.331 1082.889, 579 1081.133 C 633.575 1073.569, 679.842 1054.242, 723 1020.980 C 736.437 1010.624, 763.799 982.809, 774.231 968.901 C 823.514 903.199, 843.223 823.588, 829.910 744 C 813.713 647.166, 750.557 566.072, 659.913 525.720 C 625.573 510.433, 588.752 502.379, 549.639 501.601 C 539.112 501.391, 528.025 501.394, 525 501.607 M 517.690 677.602 C 477.237 683.914, 443.465 705.157, 421.109 738.353 C 383.519 794.169, 390.659 868.591, 438.166 916.157 L 445.832 923.832 453.666 919.955 C 461.524 916.066, 470.225 914.022, 478.992 914.008 L 483.483 914 477.492 910.075 C 469.693 904.966, 459.226 895.842, 453.643 889.288 C 449.236 884.114, 440 870.796, 440 869.616 C 440 869.277, 446.701 869, 454.890 869 L 469.781 869 472.005 877.250 C 474.961 888.219, 478.404 897.857, 482.665 907.093 L 486.168 914.685 492.508 915.853 C 495.995 916.496, 502.593 918.106, 507.170 919.432 C 511.747 920.758, 515.566 921.765, 515.657 921.671 C 515.748 921.577, 513.676 918.649, 511.052 915.165 C 503.494 905.127, 494.798 885.725, 491.593 871.750 L 490.962 869 509.481 869 L 528 869 528 897.879 L 528 926.757 530.750 927.873 C 535.540 929.816, 543.417 931.978, 545.750 931.989 L 548 932 548 900.500 L 548 869 552.124 869 C 555.719 869, 556.731 868.454, 560.012 864.750 C 567.948 855.789, 582.839 849.688, 599.921 848.398 L 608.870 847.723 609.659 841.111 C 610.662 832.697, 610.655 801.753, 609.647 792.250 L 608.879 785 626.401 785 L 643.923 785 644.957 788.841 C 648.618 802.434, 649.371 824.873, 646.605 837.932 C 645.740 842.020, 645.137 845.433, 645.266 845.515 C 645.716 845.804, 675.116 843.217, 675.438 842.860 C 678.203 839.798, 678.838 809.233, 676.447 794.239 C 673.828 777.810, 665.540 755.586, 657.182 742.581 C 647.771 727.937, 631.006 710.350, 617.755 701.223 C 588.625 681.156, 551.331 672.353, 517.690 677.602 M 523.604 707.086 C 515.007 709.518, 501.802 730.139, 494.428 752.649 C 492.543 758.405, 491 763.549, 491 764.080 C 491 764.675, 498 764.941, 509.250 764.773 L 527.500 764.500 527.766 736.066 C 527.912 720.427, 527.687 707.325, 527.266 706.949 C 526.845 706.574, 525.197 706.635, 523.604 707.086 M 548 735.481 L 548 765 566 765 C 581.253 765, 584 764.773, 584 763.515 C 584 760.689, 576.829 740.610, 573.305 733.569 C 566.573 720.121, 556.370 707.923, 550.750 706.606 L 548 705.962 548 735.481 M 479.692 722.426 C 471.577 727.313, 460.140 737.029, 453.988 744.264 C 449.060 750.059, 440 763.117, 440 764.425 C 440 764.741, 446.701 765, 454.890 765 L 469.781 765 472.007 756.750 C 475.068 745.406, 479.654 732.638, 483.180 725.649 C 484.803 722.431, 485.956 719.622, 485.741 719.408 C 485.527 719.194, 482.805 720.552, 479.692 722.426 M 592.425 726.150 C 596.569 735.140, 602.302 751.487, 604.035 759.250 L 605.318 765 620.159 765 C 628.482 765, 635 764.598, 635 764.084 C 635 761.605, 623.656 746.528, 616.063 738.914 C 608.653 731.484, 595.133 721.140, 590.516 719.368 C 589.503 718.979, 590.104 721.114, 592.425 726.150 M 429.326 792.750 C 426.720 803.903, 426.760 830.480, 429.399 841.250 L 431.299 849 448.399 849 L 465.500 849 465.500 817 L 465.500 785 448.318 785 L 431.136 785 429.326 792.750 M 486.325 790.730 C 485.264 798.155, 485.270 835.741, 486.334 843.270 L 487.149 849.041 507.325 848.770 L 527.500 848.500 527.500 817 L 527.500 785.500 507.325 785.230 L 487.149 784.959 486.325 790.730 M 548 817 L 548 849 567.955 849 L 587.909 849 588.705 845.250 C 589.725 840.439, 589.747 791.385, 588.731 787.750 L 587.962 785 567.981 785 L 548 785 548 817 M 860.500 1381.584 C 820.029 1387.835, 789.354 1413.260, 776.750 1451 C 772.045 1465.087, 771.495 1469.338, 771.580 1491 C 771.653 1509.898, 771.868 1512.281, 774.326 1521.500 C 782.077 1550.570, 799.720 1573.301, 825.113 1586.938 C 855.572 1603.295, 896.208 1604.277, 927.852 1589.421 C 948.437 1579.757, 963.206 1565.462, 973.272 1545.458 C 976.081 1539.876, 981 1527.067, 981 1525.335 C 981 1525.151, 967.959 1525, 952.020 1525 L 923.041 1525 920.911 1529.175 C 919.740 1531.471, 916.468 1535.633, 913.641 1538.425 C 904.217 1547.729, 893.009 1552, 878.018 1552 C 852.245 1552, 833.403 1536.963, 826.238 1510.677 C 825.028 1506.242, 824.546 1500.411, 824.528 1490 C 824.499 1473.848, 826.192 1466.139, 832.293 1454.632 C 847.587 1425.787, 889.307 1418.982, 912.898 1441.484 C 916.125 1444.562, 919.829 1449.087, 921.130 1451.540 L 923.497 1456 952.248 1456 C 970.181 1456, 981 1455.635, 981 1455.029 C 981 1452.780, 974.779 1437.263, 971.447 1431.202 C 962.234 1414.441, 947.284 1400.204, 929.500 1391.254 C 910.712 1381.800, 883.653 1378.008, 860.500 1381.584 M 25 1490.500 L 25 1598 50.993 1598 L 76.986 1598 77.243 1531.828 L 77.500 1465.657 81.965 1472.578 C 84.420 1476.385, 99.960 1499.975, 116.496 1525 C 133.033 1550.025, 150.599 1576.681, 155.531 1584.235 L 164.500 1597.969 191.069 1597.985 L 217.637 1598 217.458 1591.750 C 217.360 1588.313, 217.216 1539.938, 217.140 1484.250 L 217 1383 191.007 1383 L 165.014 1383 164.757 1449.250 L 164.500 1515.500 150 1493.506 C 142.025 1481.409, 128.750 1461.282, 120.500 1448.779 C 112.250 1436.276, 99.200 1416.366, 91.500 1404.536 L 77.500 1383.025 51.250 1383.013 L 25 1383 25 1490.500 M 262 1490.486 L 262 1598 287.993 1598 L 313.985 1598 314.243 1533.750 L 314.500 1469.500 338.500 1533.718 L 362.500 1597.936 384 1597.946 L 405.500 1597.957 418.364 1563.229 C 425.440 1544.128, 436.015 1515.608, 441.864 1499.852 C 447.714 1484.095, 452.868 1471.428, 453.318 1471.703 C 453.768 1471.977, 454.060 1473.619, 453.967 1475.351 C 453.874 1477.083, 453.843 1505.388, 453.899 1538.250 L 454 1598 480 1598 L 506 1598 506 1490.500 L 506 1383 475.161 1383 L 444.321 1383 443.298 1385.250 C 442.311 1387.423, 389.438 1519.022, 386.003 1527.858 L 384.308 1532.217 377.293 1514.858 C 370.605 1498.311, 347.655 1441.615, 331.608 1402 L 324.114 1383.500 293.057 1383.236 L 262 1382.972 262 1490.486 M 550 1490.500 L 550 1598 597.825 1598 C 641.560 1598, 646.617 1597.826, 656.955 1595.964 C 699.090 1588.377, 729.002 1561.440, 739.901 1521.268 C 746.961 1495.245, 743.980 1462.749, 732.416 1439.675 C 726.402 1427.676, 722.942 1422.812, 714.069 1413.886 C 698.720 1398.447, 679.181 1388.802, 654.619 1384.541 C 647.457 1383.298, 636.471 1383, 597.869 1383 L 550 1383 550 1490.500 M 602.416 1427.917 C 602.187 1428.146, 602 1456.383, 602 1490.667 L 602 1553 618.250 1552.992 C 635.812 1552.984, 643.971 1552.030, 653.435 1548.875 C 661.243 1546.273, 671.010 1539.932, 676.077 1534.175 C 681.348 1528.187, 686.674 1517.174, 688.496 1508.500 C 690.385 1499.503, 690.381 1481.463, 688.489 1472.529 C 683.907 1450.900, 669.517 1435.883, 647.799 1430.066 C 642.061 1428.529, 636.472 1428.046, 621.666 1427.805 C 611.307 1427.637, 602.644 1427.688, 602.416 1427.917" stroke="none" fill="#384883" fill-rule="evenodd"/></svg>