<?xml version="1.0" encoding="UTF-8"?>
<svg id="Layer_1" data-name="Layer 1" xmlns="http://www.w3.org/2000/svg" viewBox="0 0 232.32 122.5">
  <defs>
    <style>
      .cls-1, .cls-2 {
        fill: #894923;
      }

      .cls-2 {
        font-family: BodoniURW-Reg, 'Bodoni URW';
        font-size: 14.15px;
        letter-spacing: 0em;
      }

      .cls-3 {
        fill: #006838;
      }
    </style>
  </defs>
  <g>
    <path class="cls-1" d="M.34,70.7v.24c.02-.08.03-.16.04-.24h-.04ZM36.47,65.69c-.07-.05-.14-.1-.21-.14.07.05.14.1.21.15.38.29.75.59,1.1.92-.35-.34-.71-.64-1.1-.93ZM44.88,51.49c-.19-.21-.39-.41-.59-.6.2.19.39.39.58.6.25.27.49.54.73.83-.23-.29-.47-.56-.72-.83Z"/>
    <path class="cls-1" d="M105.65,87.28c-2.84,3.29-6.48,5.11-10.22,5.11-3.98,0-7.5-2.5-9.77-6.93-4.09,4.89-9.54,7.5-15.56,7.5-7.5,0-12.5-4.2-12.5-10.68,0-9.54,9.88-15.45,28.06-16.93v-2.84q-.11-9.2-.91-10.79c-1.02-1.7-3.18-2.61-6.48-2.61-4.2,0-7.04,1.14-7.04,2.95,0,.45.23.91.79,1.93.91,1.36,1.25,2.39,1.25,3.75,0,3.18-2.84,5.79-6.36,5.79-3.18,0-5.57-2.61-5.57-6.02,0-6.48,8.18-11.47,18.63-11.47,6.7,0,12.5,1.82,15.56,4.77,2.39,2.27,2.84,3.98,2.84,11.13v20.68c0,3.64.45,4.54,2.39,4.54,1.02,0,1.93-.57,3.07-1.7l1.82,1.82ZM85.66,68.42c-10,.11-15.34,3.52-15.34,10.22,0,4.89,3.18,8.41,7.73,8.41,2.61,0,4.77-1.25,6.13-3.52,1.14-1.93,1.48-4.09,1.48-9.43v-5.68Z"/>
    <path class="cls-1" d="M155.98,87.28c-2.84,3.29-6.48,5.11-10.22,5.11-3.98,0-7.5-2.5-9.77-6.93-4.09,4.89-9.54,7.5-15.56,7.5-7.5,0-12.5-4.2-12.5-10.68,0-9.54,9.88-15.45,28.06-16.93v-2.84q-.11-9.2-.91-10.79c-1.02-1.7-3.18-2.61-6.48-2.61-4.2,0-7.04,1.14-7.04,2.95,0,.45.23.91.79,1.93.91,1.36,1.25,2.39,1.25,3.75,0,3.18-2.84,5.79-6.36,5.79-3.18,0-5.57-2.61-5.57-6.02,0-6.48,8.18-11.47,18.63-11.47,6.7,0,12.5,1.82,15.56,4.77,2.39,2.27,2.84,3.98,2.84,11.13v20.68c0,3.64.45,4.54,2.39,4.54,1.02,0,1.93-.57,3.07-1.7l1.82,1.82ZM135.98,68.42c-10,.11-15.34,3.52-15.34,10.22,0,4.89,3.18,8.41,7.73,8.41,2.61,0,4.77-1.25,6.13-3.52,1.14-1.93,1.48-4.09,1.48-9.43v-5.68Z"/>
    <path class="cls-1" d="M154.72,50.02v-2.84h3.52c9.32,0,12.84-.34,17.72-1.25v43.85c0,9.66-.91,15-3.29,20.45-3.64,7.95-9.32,12.27-16.25,12.27-5.91,0-10-3.18-10-7.73,0-3.07,2.5-5.57,5.68-5.57,2.95,0,5.34,2.27,5.34,5,0,1.02-.23,1.7-1.02,2.95-.23.45-.34.68-.34,1.02,0,.68.91,1.25,2.27,1.25,1.48,0,2.73-.8,3.29-2.04.57-1.36.68-2.73.68-9.2v-58.17h-7.61Z"/>
    <path class="cls-1" d="M232.32,87.28c-2.84,3.29-6.48,5.11-10.22,5.11-3.98,0-7.5-2.5-9.77-6.93-4.09,4.89-9.54,7.5-15.56,7.5-7.5,0-12.5-4.2-12.5-10.68,0-9.54,9.88-15.45,28.06-16.93v-2.84q-.11-9.2-.91-10.79c-1.02-1.7-3.18-2.61-6.48-2.61-4.2,0-7.04,1.14-7.04,2.95,0,.45.23.91.79,1.93.91,1.36,1.25,2.39,1.25,3.75,0,3.18-2.84,5.79-6.36,5.79-3.18,0-5.57-2.61-5.57-6.02,0-6.48,8.18-11.47,18.63-11.47,6.7,0,12.5,1.82,15.56,4.77,2.39,2.27,2.84,3.98,2.84,11.13v20.68c0,3.64.45,4.54,2.39,4.54,1.02,0,1.93-.57,3.07-1.7l1.82,1.82ZM212.32,68.42c-10,.11-15.34,3.52-15.34,10.22,0,4.89,3.18,8.41,7.73,8.41,2.61,0,4.77-1.25,6.13-3.52,1.14-1.93,1.48-4.09,1.48-9.43v-5.68Z"/>
    <path class="cls-1" d="M51.12,68.31c0,1.82-.17,3.58-.49,5.27-.08.42-.17.84-.26,1.25-.25,1.03-.56,2.04-.92,3.01-.14.39-.3.77-.46,1.15-.48,1.14-1.05,2.22-1.68,3.25-.21.35-.43.68-.66,1.01-.34.5-.7.98-1.07,1.45-.63.77-1.29,1.51-2.01,2.21-4.43,4.28-10.51,6.85-17.44,6.85-.24,0-.48,0-.72-.01-.17,0-.34,0-.5-.02-.2,0-.4-.02-.61-.03-.2-.01-.4-.03-.6-.04-3.28-.26-6.41-1.08-9.62-2.54-.18-.09-.36-.17-.54-.26-2.1-.99-4.25-2.25-6.49-3.81l-3.75,4.77H.34v-20.89c.02-.08.03-.16.04-.24.01-.06.02-.12.03-.18.28-1.79.79-3.22,1.87-4.67,2.68-3.62,7.6-5.41,11.98-4.39,2.17.51,4.19,1.66,5.75,3.26,1.96,2.01,3.71,5.22,3.29,8-.73,4.84-4.27,5.64-5.78,5.49-1.44-.14-2.89-.39-3.47-1.72-.41-.93-.87-1.84-.66-3.56.12-1.01.84-1.84,1.43-2.66.81-1.14.84-3.74-.08-4.83-.91-1.08-3.04-1.33-4.46-1.3-2.05.06-3.69,1.62-4.85,3.32-1.08,1.59-1.41,3.88-1.33,5.78h0c.2,2.8,4.78,10.22,8.69,13.23,0,0,.01,0,.02.01.14.11.28.21.42.32.12.09.25.18.37.26.29.2.59.4.88.58.11.07.22.14.33.2.3.17.6.34.9.5.14.07.28.14.42.21.08.04.16.08.24.12.17.08.35.16.52.24.17.08.35.16.52.23.19.08.37.15.57.22.16.07.33.13.5.18.18.07.37.13.56.18.18.06.36.11.53.16.66.19,1.33.35,2.01.47.14.03.28.05.42.07.16.03.32.05.48.07.18.03.37.05.55.07.2.03.4.04.6.06.2.02.4.03.61.04.2.02.4.02.61.03.2,0,.41.01.61.01,8.86,0,16.02-6.48,16.02-14.54,0-3.78-1.48-7.21-3.9-9.53-.35-.34-.71-.64-1.1-.93-.07-.05-.14-.1-.21-.14-.1-.07-.2-.14-.3-.2-.19-.13-.38-.25-.57-.37-.1-.06-.19-.12-.29-.17-1.63-.94-3.78-1.65-12.04-4.22q-12.95-4.21-15.68-6.36c-.6-.47-1.16-.97-1.69-1.5-.79-.79-1.5-1.66-2.14-2.58-.21-.31-.41-.62-.61-.94-.19-.32-.38-.65-.55-.98-.09-.17-.17-.34-.25-.5-.17-.34-.32-.69-.47-1.04-.08-.17-.14-.35-.21-.53-.07-.18-.14-.36-.2-.54-.13-.36-.24-.73-.36-1.11-.11-.38-.21-.75-.3-1.14-.4-1.73-.61-3.57-.61-5.49C0,24.46,9.99,14.12,23.06,14.12c2.73,0,5.26.4,7.76,1.28.31.11.63.23.94.35.16.06.31.13.47.19.31.13.62.28.94.42.15.07.31.15.47.23.31.16.63.32.94.49.32.17.63.36.95.54.16.09.32.19.47.29.4.25.79.51,1.2.78.31.21.62.44.94.67.01.01.03.02.04.03.08.06.16.12.24.17h0s3.18-3.52,3.18-3.52h3.07v20.45h-3.07c-.1-.76-.22-1.5-.36-2.22-.14-.72-.31-1.42-.48-2.1-.18-.68-.38-1.34-.6-1.98-.33-.96-.7-1.86-1.12-2.72-.28-.58-.57-1.13-.88-1.66-.47-.79-.98-1.54-1.52-2.23-.46-.58-.94-1.12-1.45-1.62-3.15-3.11-7.27-4.79-12.11-4.79-8.06,0-14.08,5.45-14.08,12.61,0,3.98,1.93,7.39,5.23,9.2q2.72,1.48,12.83,4.43c10.86,3.19,14.34,4.59,17.26,7.47.2.19.39.39.58.6.25.27.49.54.73.83.12.14.23.28.35.43.57.72,1.1,1.48,1.58,2.27.29.47.57.96.82,1.46.6,1.16,1.11,2.38,1.52,3.65.17.55.34,1.1.47,1.67.14.57.26,1.14.37,1.72.28,1.55.42,3.16.42,4.8Z"/>
    <path class="cls-1" d="M23.69,93.66c-3.29-.25-6.45-1.05-9.62-2.54,3.2,1.45,6.34,2.27,9.62,2.54Z"/>
  </g>
  <text class="cls-2" transform="translate(177.13 110.06) scale(1.2 1)"><tspan x="0" y="0">FOODS</tspan></text>
  <path class="cls-3" d="M158.5,38.16S151.91,4.97,192.26,0c0,0,2.9,38.16-27.93,40.84,0,0-.32-10.2,13.21-25.02,0,0-12.37,8.84-19.04,22.35Z"/>
</svg>